<svg width="1938" height="2000" viewBox="0 0 1938 2000" fill="none" xmlns="http://www.w3.org/2000/svg">
<path d="M1778.4 500L1704.8 573.6C1763.3 665.6 1781.7 781 1741.6 891.3C1674.7 1078.6 1467.4 1177.3 1278.4 1110.4C1251.6 1100.4 1226.6 1088.7 1204.8 1073.6L969 1309.4L763.3 1102C668 1165.5 545.9 1183.9 430.5 1143.8C236.5 1073.6 136.2 861.2 206.4 668.9C216.4 638.8 231.5 612 248.2 587L159.6 498.4L142.9 526.8C50.8999 677.3 0.79989 851.2 0.79989 1030.1C-0.90011 1563.5 433.9 2000 967.3 2000H969C1502.4 2000 1935.6 1566.9 1937.2 1033.4C1937.2 856.1 1888.7 682.2 1796.7 530.1L1778.4 500Z" fill="#35775E"/>
<path d="M357 695.7C331.9 729.1 316.9 771 316.9 816.1C316.9 924.8 405.5 1013.4 514.2 1013.4C559.4 1013.4 601.2 998.3 634.6 971.6L357 695.7Z" fill="#35775E"/>
<path d="M1325.2 954.8C1357 976.5 1393.8 988.2 1435.6 988.2C1544.3 988.2 1632.9 899.6 1632.9 790.9C1632.9 750.8 1621.2 712.3 1599.5 680.5L1325.2 954.8Z" fill="#35775E"/>
<path d="M972.3 1162.2L173 359.5L204.8 326.1C402.1 117.1 671.3 0 960.6 0H962.3C1254.9 0 1535.9 125.4 1731.5 342.8L1761.6 376.2L972.3 1162.2ZM303.5 359.5L972.4 1030.1L1632.9 372.9C1455.6 195.7 1214.8 93.6 964 93.6H962.3C713.1 93.6 480.7 187.3 303.5 359.5Z" fill="#35775E"/>
</svg>
